<mxfile host="app.diagrams.net" modified="2023-07-02T14:07:23.656Z" agent="Mozilla/5.0 (Macintosh; Intel Mac OS X 10_15_7) AppleWebKit/537.36 (KHTML, like Gecko) Chrome/114.0.0.0 Safari/537.36" version="21.5.2" etag="v0VdbAJ77WCT-uxIyj4f" type="github">
  <diagram name="第 1 页" id="GtAAx4TJ5qpFv3tn4_zG">
    <mxGraphModel>
      <root>
        <mxCell id="0" />
        <mxCell id="1" parent="0" />
      </root>
    </mxGraphModel>
  </diagram>
</mxfile>
